<?xml version="1.0" encoding="UTF-8"?><svg xmlns="http://www.w3.org/2000/svg" xmlns:xlink="http://www.w3.org/1999/xlink" viewBox="0 0 658.85 102"><defs><style>.e{fill:#e5e5e5;}.f{fill:url(#d);}</style><radialGradient id="d" cx="498.25" cy="51" fx="498.25" fy="51" r="51" gradientTransform="matrix(1, 0, 0, 1, 0, 0)" gradientUnits="userSpaceOnUse"><stop offset=".52" stop-color="#29b739"/><stop offset=".54" stop-color="#29b739" stop-opacity=".86"/><stop offset=".57" stop-color="#29b739" stop-opacity=".67"/><stop offset=".6" stop-color="#29b739" stop-opacity=".52"/><stop offset=".63" stop-color="#29b739" stop-opacity=".4"/><stop offset=".66" stop-color="#29b739" stop-opacity=".32"/><stop offset=".7" stop-color="#29b739" stop-opacity=".27"/><stop offset=".76" stop-color="#29b739" stop-opacity=".25"/><stop offset=".79" stop-color="#29b739" stop-opacity=".21"/><stop offset=".92" stop-color="#29b739" stop-opacity=".06"/><stop offset="1" stop-color="#29b739" stop-opacity="0"/></radialGradient></defs><g id="a"/><g id="b"><g id="c"><g><path class="e" d="M49.62,49.65h14.21v27.26c-3.65,2.75-7.87,4.86-12.67,6.33-4.8,1.47-9.63,2.21-14.49,2.21-6.98,0-13.25-1.49-18.81-4.46s-9.93-7.1-13.1-12.38S0,57.36,0,50.7s1.58-12.62,4.75-17.9c3.17-5.28,7.57-9.41,13.2-12.38,5.63-2.97,11.96-4.46,19-4.46,5.89,0,11.23,.99,16.03,2.98,4.8,1.98,8.83,4.86,12.09,8.64l-9.98,9.21c-4.8-5.05-10.59-7.58-17.37-7.58-4.29,0-8.1,.9-11.42,2.69-3.33,1.79-5.92,4.32-7.77,7.58-1.86,3.26-2.78,7.01-2.78,11.23s.93,7.87,2.78,11.13c1.85,3.26,4.43,5.81,7.73,7.63,3.29,1.82,7.05,2.74,11.28,2.74,4.48,0,8.51-.96,12.09-2.88v-19.68Z"/><path class="e" d="M122.03,84.3l-12.96-18.72h-14.3v18.72h-15.55V17.11h29.08c5.95,0,11.12,.99,15.5,2.97,4.38,1.98,7.76,4.8,10.13,8.45,2.37,3.65,3.55,7.97,3.55,12.96s-1.2,9.3-3.6,12.91c-2.4,3.62-5.81,6.38-10.22,8.3l15.07,21.6h-16.7Zm-3.93-51.49c-2.43-2.02-5.98-3.02-10.65-3.02h-12.67v23.42h12.67c4.67,0,8.22-1.02,10.65-3.07,2.43-2.05,3.65-4.93,3.65-8.64s-1.22-6.67-3.65-8.69Z"/><path class="e" d="M201.79,71.82v12.48h-52.02V17.11h50.77v12.48h-35.32v14.59h31.19v12.09h-31.19v15.55h36.57Z"/><path class="e" d="M267.2,71.82v12.48h-52.02V17.11h50.77v12.48h-35.32v14.59h31.19v12.09h-31.19v15.55h36.57Z"/><path class="e" d="M342.2,17.11V84.3h-12.77l-33.5-40.79v40.79h-15.36V17.11h12.86l33.4,40.79V17.11h15.36Z"/><path class="e" d="M446.91,17.11V84.3h-15.55v-27.55h-30.52v27.55h-15.55V17.11h15.55v26.49h30.52V17.11h15.55Z"/><path class="e" d="M548.86,17.11h15.55v54.52h33.69v12.67h-49.24V17.11Z"/><path class="e" d="M658.85,71.82v12.48h-52.02V17.11h50.77v12.48h-35.32v14.59h31.19v12.09h-31.19v15.55h36.57Z"/><path class="f" d="M498.25,0c-28.17,0-51,22.83-51,51s22.83,51,51,51,51-22.83,51-51S526.42,0,498.25,0Zm0,73c-12.15,0-22-9.85-22-22s9.85-22,22-22,22,9.85,22,22-9.85,22-22,22Z"/></g></g></g></svg>